<svg aria-hidden="true" style="position: absolute; width: 0; height: 0; overflow: hidden;" version="1.1" xmlns="http://www.w3.org/2000/svg" xmlns:xlink="http://www.w3.org/1999/xlink">
<defs>
<symbol id="icon-burger" viewBox="0 0 46 32">
<path d="M45.714 29.726c0 1.257-1.019 2.274-2.274 2.274h-18.309c-1.256 0-2.274-1.018-2.274-2.274s1.018-2.274 2.274-2.274h18.309c1.257 0 2.274 1.017 2.274 2.274zM45.714 16c0 1.257-1.019 2.274-2.274 2.274h-41.166c-1.256 0-2.274-1.018-2.274-2.274s1.018-2.274 2.274-2.274h41.166c1.257 0 2.274 1.019 2.274 2.274zM43.44 4.549c1.256 0 2.274-1.018 2.274-2.274s-1.018-2.274-2.274-2.274v0h-27.451c-1.256 0-2.274 1.018-2.274 2.274s1.018 2.274 2.274 2.274v0h27.451z"></path>
</symbol>
</defs>
</svg>
